<svg width="48" height="48" viewBox="0 0 48 48" fill="none" xmlns="http://www.w3.org/2000/svg">
  <rect width="48" height="48" rx="12" fill="#F5F5F7"/>
  <path d="M31.6 24.2c0-4 3.3-5.9 3.4-6-1.9-2.7-4.7-3.1-5.7-3.1-2.4-.2-4.7 1.4-5.9 1.4-1.2 0-3.1-1.4-5.1-1.3-2.6 0-5 1.5-6.3 3.9-2.7 4.6-.7 11.4 1.9 15.2 1.3 1.8 2.8 3.9 4.8 3.8 1.9-.1 2.7-1.2 5-1.2 2.3 0 3 1.2 5.1 1.2 2.1 0 3.4-1.9 4.7-3.7 1.5-2.1 2.1-4.2 2.1-4.3 0-.1-4-1.6-4-5.9Z" fill="#111827"/>
  <path d="M27.7 12.5c1.1-1.3 1.8-3.1 1.6-4.9-1.6.1-3.5 1.1-4.6 2.4-1 1.1-1.9 3-1.7 4.8 1.8.1 3.6-.9 4.7-2.3Z" fill="#111827"/>
</svg>
