<svg width="48" height="48" viewBox="0 0 48 48" fill="none" xmlns="http://www.w3.org/2000/svg"><rect width="48" height="48" rx="12" fill="#FFFFFF"/><rect x="0.75" y="0.75" width="46.5" height="46.5" rx="11.25" stroke="#E6ECF5" stroke-width="1.5"/><path d="M24 9a15 15 0 100 30c2 0 3-1.4 3-3 0-1-.5-1.6-1-2.2-.5-.6-1-1.2-1-2.3 0-1.8 1.5-3 3.3-3H32a7 7 0 007-7c0-7-7-12.5-15-12.5z" fill="#BF5AF2"/><circle cx="17" cy="20" r="2.3" fill="#fff"/><circle cx="24" cy="15.5" r="2.3" fill="#fff"/><circle cx="31" cy="20" r="2.3" fill="#fff"/><circle cx="15.5" cy="27.5" r="2.3" fill="#fff"/></svg>