<svg width="48" height="48" viewBox="0 0 48 48" fill="none" xmlns="http://www.w3.org/2000/svg" role="img" aria-label="Feishu">
  <rect width="48" height="48" rx="12" fill="#FFFFFF"/>
  <rect x="0.75" y="0.75" width="46.5" height="46.5" rx="11.25" stroke="#E6ECF5" stroke-width="1.5"/>
  <defs>
    <linearGradient id="fsWing" x1="8" y1="27" x2="41" y2="13" gradientUnits="userSpaceOnUse">
      <stop offset="0" stop-color="#00D6FF"/>
      <stop offset="1" stop-color="#3370FF"/>
    </linearGradient>
  </defs>
  <path fill="url(#fsWing)" d="M7.5 27.2c10.8-11.6 24.6-16 34.6-13.4-3.9 2.2-7.6 5-10.9 8.3-3.4 3.4-6.3 7.2-8.6 11.2-.6 1-2 1.2-2.8.3l-4.1-4.5c2.6-2.7 5.5-5.1 8.6-7.2-5.7 1.3-11.4 3.2-16.8 5.3z"/>
  <path fill="#2A55E5" d="M31.2 22.1c-3.4 3.4-6.3 7.2-8.6 11.2-.6 1-2 1.2-2.8.3l-1.9-2.1c3.5-4.4 8.1-7.7 13.3-9.4z" opacity="0.55"/>
</svg>
