<svg width="48" height="48" viewBox="0 0 48 48" fill="none" xmlns="http://www.w3.org/2000/svg">
  <rect width="48" height="48" rx="12" fill="#F7FBFF"/>
  <path d="M23.8 8c-6.5 0-6.1 2.8-6.1 2.8v2.9h6.2v.9H15c-2.7 0-5 1.6-5.7 4.7-.8 3.6-.8 5.8 0 9.5.6 2.7 2.1 4.7 4.8 4.7h3.1v-4.1c0-3 2.6-5.7 5.7-5.7h6.1c1.7 0 3.1-1.4 3.1-3.1v-9.8S32.5 8 23.8 8Zm-3.4 2.1c.6 0 1.1.5 1.1 1.1s-.5 1.1-1.1 1.1-1.1-.5-1.1-1.1.5-1.1 1.1-1.1Z" fill="#3776AB"/>
  <path d="M24.2 40c6.5 0 6.1-2.8 6.1-2.8v-2.9h-6.2v-.9H33c2.7 0 5-1.6 5.7-4.7.8-3.6.8-5.8 0-9.5-.6-2.7-2.1-4.7-4.8-4.7h-3.1v4.1c0 3-2.6 5.7-5.7 5.7H19c-1.7 0-3.1 1.4-3.1 3.1v9.8S15.5 40 24.2 40Zm3.4-2.1c-.6 0-1.1-.5-1.1-1.1s.5-1.1 1.1-1.1 1.1.5 1.1 1.1-.5 1.1-1.1 1.1Z" fill="#FFD43B"/>
</svg>
